<svg width="20" height="21" viewBox="0 0 20 21" fill="none" xmlns="http://www.w3.org/2000/svg">
<g clip-path="url(#clip0_1_12349)">
<path d="M10.8333 3.44576C10.8333 3.16882 10.8671 2.89976 10.9307 2.64248C9.90675 2.01454 8.72092 1.67432 7.49999 1.67432C5.75951 1.67432 4.09032 2.36572 2.85961 3.59642C1.62891 4.82712 0.9375 6.49632 0.9375 8.2368V13.3931C0.9375 13.766 1.08566 14.1237 1.34938 14.3874C1.61311 14.6512 1.97079 14.7993 2.34375 14.7993H6.56928C7.05102 15.8143 7.78709 16.6924 8.71075 17.3453C9.819 18.1287 11.1428 18.5493 12.5 18.5493H17.6562C18.0292 18.5493 18.3869 18.4012 18.6507 18.1374C18.9143 17.8737 19.0625 17.516 19.0625 17.1431V11.9868C19.0625 11.2651 18.9436 10.5553 18.7163 9.88351C18.3395 10.0313 17.9292 10.1124 17.5 10.1124H16.7964C17.0521 10.6985 17.1875 11.3359 17.1875 11.9868V16.6743H12.5C11.5304 16.6743 10.5848 16.3738 9.793 15.8142C9.35592 15.5052 8.97767 15.1257 8.672 14.6938C9.977 14.457 11.1896 13.828 12.1404 12.8772C12.923 12.0946 13.4875 11.1347 13.7948 10.0919C13.1372 10.0189 12.5373 9.75459 12.052 9.35584C11.8493 10.1802 11.4247 10.9412 10.8146 11.5513C9.9355 12.4304 8.74325 12.9243 7.50001 12.9243H2.8125V8.2368C2.8125 6.9936 3.30636 5.80132 4.18543 4.92225C5.06451 4.04317 6.25679 3.54932 7.49999 3.54932C8.74317 3.54932 9.9355 4.04317 10.8146 4.92225L10.8333 4.94112V3.44576Z" fill="#80848E"/>
<path fill-rule="evenodd" clip-rule="evenodd" d="M17.5205 3.44548V4.27881C17.9693 4.27881 18.333 4.64258 18.333 5.09131V7.61214C18.333 8.07238 17.9599 8.44548 17.4997 8.44548H14.1663C13.7061 8.44548 13.333 8.07238 13.333 7.61214V5.11214C13.333 4.65191 13.7061 4.27881 14.1663 4.27881V3.44548C14.1663 2.51214 14.958 1.77881 15.833 1.77881C16.708 1.77881 17.5205 2.51214 17.5205 3.44548ZM14.9997 4.27881H16.6663V3.44548C16.6663 2.96928 16.2774 2.61214 15.833 2.61214C15.3886 2.61214 14.9997 2.96928 14.9997 3.44548V4.27881Z" fill="#80848E"/>
</g>
<defs>
<clipPath id="clip0_1_12349">
<rect width="20" height="20" fill="white" transform="translate(0 0.112305)"/>
</clipPath>
</defs>
</svg>
